<?xml version="1.0" standalone="no"?>
<!DOCTYPE svg PUBLIC "-//W3C//DTD SVG 20010904//EN"
 "http://www.w3.org/TR/2001/REC-SVG-20010904/DTD/svg10.dtd">
<svg version="1.0" xmlns="http://www.w3.org/2000/svg"
 width="700.000000pt" height="700.000000pt" viewBox="0 0 700.000000 700.000000"
 preserveAspectRatio="xMidYMid meet">
<metadata>
Created by potrace 1.11, written by Peter Selinger 2001-2013
</metadata>
<g transform="translate(0.000000,700.000000) scale(0.100000,-0.100000)"
fill="#000000" stroke="none">
<path d="M930 4742 c-13 -5 -13 -52 0 -53 6 -1 13 -2 18 -3 4 -1 42 -8 84 -15
l77 -14 62 -156 c33 -86 67 -170 75 -187 7 -17 29 -71 48 -120 19 -49 68 -176
110 -281 42 -106 110 -280 151 -385 42 -106 80 -202 85 -213 5 -11 92 -234
195 -495 102 -261 194 -494 203 -517 9 -24 22 -43 27 -44 19 -1 95 -4 95 -3 0
0 25 74 56 165 31 90 132 387 224 659 224 660 259 762 263 766 2 2 21 -40 41
-94 21 -53 44 -110 51 -127 7 -16 41 -102 75 -190 34 -88 71 -179 81 -202 10
-24 19 -45 19 -47 0 -3 43 -112 95 -244 52 -132 110 -282 130 -334 20 -51 41
-104 47 -118 6 -14 29 -72 52 -130 l41 -105 49 2 c27 1 52 6 56 10 4 4 25 64
48 133 22 69 113 339 202 600 88 261 199 590 246 730 47 140 88 262 91 270 3
8 49 143 102 300 l97 285 95 35 c52 19 99 38 104 41 6 4 24 10 42 14 34 7 53
39 35 57 -8 8 -529 15 -633 9 -6 -1 -9 -13 -7 -28 2 -23 12 -31 53 -46 28 -10
64 -24 80 -31 17 -7 51 -21 78 -31 26 -10 47 -19 47 -20 0 -1 -34 -103 -76
-226 -42 -123 -89 -262 -104 -309 -42 -125 -309 -912 -316 -930 -7 -21 -11
-13 -72 145 -264 680 -486 1232 -510 1268 -75 107 -196 184 -327 203 -48 8
-505 7 -512 0 -14 -13 -11 -37 6 -45 9 -5 37 -12 61 -16 25 -4 52 -9 60 -10 8
-2 24 -4 36 -4 18 -1 34 -34 108 -223 49 -123 94 -236 101 -253 7 -16 26 -64
43 -107 l30 -76 -23 -69 c-13 -37 -69 -201 -125 -363 -56 -162 -113 -332 -127
-377 -15 -46 -29 -83 -32 -83 -3 0 -33 69 -65 153 -33 83 -65 166 -72 182 -8
17 -33 82 -58 145 -24 63 -70 180 -101 260 -279 712 -263 676 -334 748 -81 82
-171 126 -286 139 -54 6 -479 10 -495 5z"/>
<path d="M5573 4044 c-119 -25 -237 -96 -327 -196 -46 -50 -59 -60 -66 -48 -5
8 -10 19 -10 23 0 25 -122 157 -145 157 -6 0 -16 5 -23 12 -35 35 -145 51
-351 50 -195 0 -181 2 -181 -27 0 -26 -4 -24 143 -61 l67 -16 -2 -771 -3 -771
-102 -25 c-99 -24 -103 -26 -103 -52 l0 -27 490 0 490 -1 0 27 c0 27 -3 29
-102 53 l-103 25 -2 649 -1 649 24 35 c57 84 159 172 239 206 50 21 68 26 127
32 l46 5 0 -209 c1 -314 -3 -281 35 -288 44 -9 135 -10 173 -3 127 24 201 134
191 286 -9 148 -86 246 -222 285 -63 18 -201 18 -282 1z"/>
</g>
</svg>
